<mxfile host="app.diagrams.net" modified="2022-10-26T01:13:24.280Z" agent="5.0 (Windows NT 10.0; Win64; x64) AppleWebKit/537.36 (KHTML, like Gecko) Chrome/106.0.0.0 Safari/537.36" etag="LlFGi9qXXCCFhB6uVbsG" version="20.5.1" type="github">
  <diagram id="TxbqxN1urBwJOq58Y2JI" name="PÃ¡gina-1">
    <mxGraphModel dx="3671" dy="1394" grid="1" gridSize="10" guides="1" tooltips="1" connect="1" arrows="1" fold="1" page="1" pageScale="1" pageWidth="827" pageHeight="1169" math="0" shadow="0">
      <root>
        <mxCell id="0" />
        <mxCell id="1" parent="0" />
        <mxCell id="dLVWwbLJQ5aN7-_-cPAS-10" style="edgeStyle=orthogonalEdgeStyle;rounded=0;orthogonalLoop=1;jettySize=auto;html=1;entryX=0;entryY=0.5;entryDx=0;entryDy=0;" edge="1" parent="1" source="dLVWwbLJQ5aN7-_-cPAS-1" target="dLVWwbLJQ5aN7-_-cPAS-5">
          <mxGeometry relative="1" as="geometry" />
        </mxCell>
        <mxCell id="dLVWwbLJQ5aN7-_-cPAS-22" style="edgeStyle=orthogonalEdgeStyle;rounded=0;orthogonalLoop=1;jettySize=auto;html=1;" edge="1" parent="1" source="dLVWwbLJQ5aN7-_-cPAS-1" target="dLVWwbLJQ5aN7-_-cPAS-21">
          <mxGeometry relative="1" as="geometry" />
        </mxCell>
        <mxCell id="dLVWwbLJQ5aN7-_-cPAS-1" value="" style="outlineConnect=0;dashed=0;verticalLabelPosition=bottom;verticalAlign=top;align=center;html=1;shape=mxgraph.aws3.lambda_function;fillColor=#F58534;gradientColor=none;" vertex="1" parent="1">
          <mxGeometry x="240" y="621" width="69" height="72" as="geometry" />
        </mxCell>
        <mxCell id="dLVWwbLJQ5aN7-_-cPAS-48" style="edgeStyle=orthogonalEdgeStyle;rounded=0;orthogonalLoop=1;jettySize=auto;html=1;entryX=0;entryY=0.5;entryDx=0;entryDy=0;entryPerimeter=0;fontSize=14;" edge="1" parent="1" source="dLVWwbLJQ5aN7-_-cPAS-2" target="dLVWwbLJQ5aN7-_-cPAS-43">
          <mxGeometry relative="1" as="geometry" />
        </mxCell>
        <mxCell id="dLVWwbLJQ5aN7-_-cPAS-49" style="edgeStyle=orthogonalEdgeStyle;rounded=0;orthogonalLoop=1;jettySize=auto;html=1;entryX=0;entryY=0.5;entryDx=0;entryDy=0;entryPerimeter=0;fontSize=14;" edge="1" parent="1" source="dLVWwbLJQ5aN7-_-cPAS-2" target="dLVWwbLJQ5aN7-_-cPAS-41">
          <mxGeometry relative="1" as="geometry" />
        </mxCell>
        <mxCell id="dLVWwbLJQ5aN7-_-cPAS-51" style="edgeStyle=orthogonalEdgeStyle;rounded=0;orthogonalLoop=1;jettySize=auto;html=1;exitX=0.855;exitY=0.855;exitDx=0;exitDy=0;exitPerimeter=0;entryX=0;entryY=0.5;entryDx=0;entryDy=0;entryPerimeter=0;fontSize=14;" edge="1" parent="1" source="dLVWwbLJQ5aN7-_-cPAS-2">
          <mxGeometry relative="1" as="geometry">
            <mxPoint x="1190" y="1333.25" as="targetPoint" />
            <Array as="points">
              <mxPoint x="1069" y="1277" />
              <mxPoint x="1135" y="1277" />
              <mxPoint x="1135" y="1333" />
            </Array>
          </mxGeometry>
        </mxCell>
        <mxCell id="dLVWwbLJQ5aN7-_-cPAS-80" style="edgeStyle=orthogonalEdgeStyle;rounded=0;orthogonalLoop=1;jettySize=auto;html=1;exitX=1;exitY=0.5;exitDx=0;exitDy=0;exitPerimeter=0;fontSize=14;" edge="1" parent="1" source="dLVWwbLJQ5aN7-_-cPAS-2" target="dLVWwbLJQ5aN7-_-cPAS-79">
          <mxGeometry relative="1" as="geometry" />
        </mxCell>
        <mxCell id="dLVWwbLJQ5aN7-_-cPAS-2" value="" style="outlineConnect=0;dashed=0;verticalLabelPosition=bottom;verticalAlign=top;align=center;html=1;shape=mxgraph.aws3.lambda_function;fillColor=#F58534;gradientColor=none;" vertex="1" parent="1">
          <mxGeometry x="1010" y="1241" width="69" height="72" as="geometry" />
        </mxCell>
        <mxCell id="dLVWwbLJQ5aN7-_-cPAS-38" style="edgeStyle=orthogonalEdgeStyle;rounded=0;orthogonalLoop=1;jettySize=auto;html=1;entryX=0;entryY=0.5;entryDx=0;entryDy=0;entryPerimeter=0;fontSize=14;" edge="1" parent="1" source="dLVWwbLJQ5aN7-_-cPAS-3" target="dLVWwbLJQ5aN7-_-cPAS-34">
          <mxGeometry relative="1" as="geometry" />
        </mxCell>
        <mxCell id="dLVWwbLJQ5aN7-_-cPAS-40" style="edgeStyle=orthogonalEdgeStyle;rounded=0;orthogonalLoop=1;jettySize=auto;html=1;entryX=0;entryY=0.5;entryDx=0;entryDy=0;entryPerimeter=0;fontSize=14;" edge="1" parent="1" source="dLVWwbLJQ5aN7-_-cPAS-3" target="dLVWwbLJQ5aN7-_-cPAS-37">
          <mxGeometry relative="1" as="geometry" />
        </mxCell>
        <mxCell id="dLVWwbLJQ5aN7-_-cPAS-83" style="edgeStyle=orthogonalEdgeStyle;rounded=0;orthogonalLoop=1;jettySize=auto;html=1;fontSize=14;" edge="1" parent="1" source="dLVWwbLJQ5aN7-_-cPAS-3" target="dLVWwbLJQ5aN7-_-cPAS-82">
          <mxGeometry relative="1" as="geometry">
            <Array as="points">
              <mxPoint x="1130" y="657" />
              <mxPoint x="1130" y="542" />
            </Array>
          </mxGeometry>
        </mxCell>
        <mxCell id="dLVWwbLJQ5aN7-_-cPAS-3" value="" style="outlineConnect=0;dashed=0;verticalLabelPosition=bottom;verticalAlign=top;align=center;html=1;shape=mxgraph.aws3.lambda_function;fillColor=#F58534;gradientColor=none;" vertex="1" parent="1">
          <mxGeometry x="1010" y="621" width="69" height="72" as="geometry" />
        </mxCell>
        <mxCell id="dLVWwbLJQ5aN7-_-cPAS-26" style="edgeStyle=orthogonalEdgeStyle;rounded=0;orthogonalLoop=1;jettySize=auto;html=1;entryX=0.5;entryY=0;entryDx=0;entryDy=0;entryPerimeter=0;" edge="1" parent="1" source="dLVWwbLJQ5aN7-_-cPAS-4" target="dLVWwbLJQ5aN7-_-cPAS-19">
          <mxGeometry relative="1" as="geometry" />
        </mxCell>
        <mxCell id="dLVWwbLJQ5aN7-_-cPAS-46" style="edgeStyle=orthogonalEdgeStyle;rounded=0;orthogonalLoop=1;jettySize=auto;html=1;exitX=1;exitY=0.5;exitDx=0;exitDy=0;exitPerimeter=0;entryX=0;entryY=0.5;entryDx=0;entryDy=0;entryPerimeter=0;fontSize=14;" edge="1" parent="1" source="dLVWwbLJQ5aN7-_-cPAS-4" target="dLVWwbLJQ5aN7-_-cPAS-2">
          <mxGeometry relative="1" as="geometry">
            <Array as="points">
              <mxPoint x="640" y="1697" />
              <mxPoint x="640" y="1277" />
            </Array>
          </mxGeometry>
        </mxCell>
        <mxCell id="dLVWwbLJQ5aN7-_-cPAS-4" value="" style="outlineConnect=0;dashed=0;verticalLabelPosition=bottom;verticalAlign=top;align=center;html=1;shape=mxgraph.aws3.lambda_function;fillColor=#F58534;gradientColor=none;" vertex="1" parent="1">
          <mxGeometry x="240" y="1661" width="69" height="72" as="geometry" />
        </mxCell>
        <mxCell id="dLVWwbLJQ5aN7-_-cPAS-6" style="edgeStyle=orthogonalEdgeStyle;rounded=0;orthogonalLoop=1;jettySize=auto;html=1;entryX=0;entryY=0.5;entryDx=0;entryDy=0;entryPerimeter=0;" edge="1" parent="1" source="dLVWwbLJQ5aN7-_-cPAS-5" target="dLVWwbLJQ5aN7-_-cPAS-3">
          <mxGeometry relative="1" as="geometry" />
        </mxCell>
        <mxCell id="dLVWwbLJQ5aN7-_-cPAS-25" style="edgeStyle=orthogonalEdgeStyle;rounded=0;orthogonalLoop=1;jettySize=auto;html=1;exitX=0.5;exitY=1;exitDx=0;exitDy=0;entryX=0;entryY=0.5;entryDx=0;entryDy=0;entryPerimeter=0;" edge="1" parent="1" source="dLVWwbLJQ5aN7-_-cPAS-5" target="dLVWwbLJQ5aN7-_-cPAS-23">
          <mxGeometry relative="1" as="geometry" />
        </mxCell>
        <mxCell id="dLVWwbLJQ5aN7-_-cPAS-47" style="edgeStyle=orthogonalEdgeStyle;rounded=0;orthogonalLoop=1;jettySize=auto;html=1;exitX=0.5;exitY=1;exitDx=0;exitDy=0;entryX=0;entryY=0.5;entryDx=0;entryDy=0;entryPerimeter=0;fontSize=14;" edge="1" parent="1" source="dLVWwbLJQ5aN7-_-cPAS-5" target="dLVWwbLJQ5aN7-_-cPAS-2">
          <mxGeometry relative="1" as="geometry" />
        </mxCell>
        <mxCell id="dLVWwbLJQ5aN7-_-cPAS-5" value="CORE" style="rhombus;whiteSpace=wrap;html=1;" vertex="1" parent="1">
          <mxGeometry x="600" y="617" width="80" height="80" as="geometry" />
        </mxCell>
        <mxCell id="dLVWwbLJQ5aN7-_-cPAS-9" style="edgeStyle=orthogonalEdgeStyle;rounded=0;orthogonalLoop=1;jettySize=auto;html=1;entryX=0;entryY=0.5;entryDx=0;entryDy=0;entryPerimeter=0;" edge="1" parent="1" source="dLVWwbLJQ5aN7-_-cPAS-8" target="dLVWwbLJQ5aN7-_-cPAS-1">
          <mxGeometry relative="1" as="geometry" />
        </mxCell>
        <mxCell id="dLVWwbLJQ5aN7-_-cPAS-8" value="" style="outlineConnect=0;dashed=0;verticalLabelPosition=bottom;verticalAlign=top;align=center;html=1;shape=mxgraph.aws3.api_gateway;fillColor=#D9A741;gradientColor=none;" vertex="1" parent="1">
          <mxGeometry x="20" y="610.5" width="76.5" height="93" as="geometry" />
        </mxCell>
        <mxCell id="dLVWwbLJQ5aN7-_-cPAS-12" style="edgeStyle=orthogonalEdgeStyle;rounded=0;orthogonalLoop=1;jettySize=auto;html=1;entryX=0;entryY=0.5;entryDx=0;entryDy=0;entryPerimeter=0;" edge="1" parent="1" source="dLVWwbLJQ5aN7-_-cPAS-11" target="dLVWwbLJQ5aN7-_-cPAS-4">
          <mxGeometry relative="1" as="geometry" />
        </mxCell>
        <mxCell id="dLVWwbLJQ5aN7-_-cPAS-11" value="" style="outlineConnect=0;dashed=0;verticalLabelPosition=bottom;verticalAlign=top;align=center;html=1;shape=mxgraph.aws3.api_gateway;fillColor=#D9A741;gradientColor=none;" vertex="1" parent="1">
          <mxGeometry x="10" y="1650.5" width="76.5" height="93" as="geometry" />
        </mxCell>
        <mxCell id="dLVWwbLJQ5aN7-_-cPAS-14" value="&lt;b&gt;APISS AP&lt;/b&gt;" style="text;html=1;align=center;verticalAlign=middle;resizable=0;points=[];autosize=1;strokeColor=none;fillColor=none;" vertex="1" parent="1">
          <mxGeometry x="730" y="624.75" width="80" height="30" as="geometry" />
        </mxCell>
        <mxCell id="dLVWwbLJQ5aN7-_-cPAS-15" value="&lt;b&gt;WEB&lt;/b&gt;" style="text;html=1;align=center;verticalAlign=middle;resizable=0;points=[];autosize=1;strokeColor=none;fillColor=none;" vertex="1" parent="1">
          <mxGeometry x="640" y="751" width="50" height="30" as="geometry" />
        </mxCell>
        <mxCell id="dLVWwbLJQ5aN7-_-cPAS-19" value="" style="outlineConnect=0;dashed=0;verticalLabelPosition=bottom;verticalAlign=top;align=center;html=1;shape=mxgraph.aws3.dynamo_db;fillColor=#2E73B8;gradientColor=none;" vertex="1" parent="1">
          <mxGeometry x="444" y="1861" width="72" height="81" as="geometry" />
        </mxCell>
        <mxCell id="dLVWwbLJQ5aN7-_-cPAS-21" value="" style="outlineConnect=0;dashed=0;verticalLabelPosition=bottom;verticalAlign=top;align=center;html=1;shape=mxgraph.aws3.dynamo_db;fillColor=#2E73B8;gradientColor=none;" vertex="1" parent="1">
          <mxGeometry x="440" y="791" width="72" height="81" as="geometry" />
        </mxCell>
        <mxCell id="dLVWwbLJQ5aN7-_-cPAS-23" value="" style="outlineConnect=0;dashed=0;verticalLabelPosition=bottom;verticalAlign=top;align=center;html=1;shape=mxgraph.aws3.dynamo_db;fillColor=#2E73B8;gradientColor=none;" vertex="1" parent="1">
          <mxGeometry x="750" y="870" width="72" height="81" as="geometry" />
        </mxCell>
        <mxCell id="dLVWwbLJQ5aN7-_-cPAS-27" value="&lt;span style=&quot;color: rgb(22, 25, 31); font-family: &amp;quot;Amazon Ember&amp;quot;, &amp;quot;Helvetica Neue&amp;quot;, Roboto, Arial, sans-serif; text-align: left; background-color: rgb(242, 243, 243);&quot;&gt;&lt;font style=&quot;font-size: 14px;&quot;&gt;&lt;b&gt;UE1COMPRODLMBAPP004&lt;/b&gt;&lt;/font&gt;&lt;/span&gt;" style="text;html=1;align=center;verticalAlign=middle;resizable=0;points=[];autosize=1;strokeColor=none;fillColor=none;" vertex="1" parent="1">
          <mxGeometry x="185" y="1631" width="210" height="30" as="geometry" />
        </mxCell>
        <mxCell id="dLVWwbLJQ5aN7-_-cPAS-28" value="&lt;span style=&quot;color: rgb(22, 25, 31); font-family: &amp;quot;Amazon Ember&amp;quot;, &amp;quot;Helvetica Neue&amp;quot;, Roboto, Arial, sans-serif; text-align: left; background-color: rgb(255, 255, 255);&quot;&gt;&lt;b&gt;UE1STGPRODDYNAPP005&lt;/b&gt;&lt;/span&gt;" style="text;html=1;align=center;verticalAlign=middle;resizable=0;points=[];autosize=1;strokeColor=none;fillColor=none;fontSize=14;" vertex="1" parent="1">
          <mxGeometry x="690" y="830" width="200" height="30" as="geometry" />
        </mxCell>
        <mxCell id="dLVWwbLJQ5aN7-_-cPAS-29" value="&lt;span style=&quot;color: rgb(22, 25, 31); font-family: &amp;quot;Amazon Ember&amp;quot;, &amp;quot;Helvetica Neue&amp;quot;, Roboto, Arial, sans-serif; text-align: left; background-color: rgb(255, 255, 255);&quot;&gt;&lt;b&gt;UE1STGPRODDYNAPP005&lt;/b&gt;&lt;/span&gt;" style="text;html=1;align=center;verticalAlign=middle;resizable=0;points=[];autosize=1;strokeColor=none;fillColor=none;fontSize=14;" vertex="1" parent="1">
          <mxGeometry x="390" y="1821" width="200" height="30" as="geometry" />
        </mxCell>
        <mxCell id="dLVWwbLJQ5aN7-_-cPAS-30" value="&lt;span style=&quot;color: rgb(22, 25, 31); font-family: &amp;quot;Amazon Ember&amp;quot;, &amp;quot;Helvetica Neue&amp;quot;, Roboto, Arial, sans-serif; text-align: left; background-color: rgb(255, 255, 255);&quot;&gt;&lt;b&gt;UE1STGPRODDYNAPP005&lt;/b&gt;&lt;/span&gt;" style="text;html=1;align=center;verticalAlign=middle;resizable=0;points=[];autosize=1;strokeColor=none;fillColor=none;fontSize=14;" vertex="1" parent="1">
          <mxGeometry x="376" y="751" width="200" height="30" as="geometry" />
        </mxCell>
        <mxCell id="dLVWwbLJQ5aN7-_-cPAS-34" value="" style="outlineConnect=0;dashed=0;verticalLabelPosition=bottom;verticalAlign=top;align=center;html=1;shape=mxgraph.aws3.mysql_db_instance;fillColor=#2E73B8;gradientColor=none;fontSize=14;" vertex="1" parent="1">
          <mxGeometry x="1190" y="624.75" width="60" height="64.5" as="geometry" />
        </mxCell>
        <mxCell id="dLVWwbLJQ5aN7-_-cPAS-37" value="" style="outlineConnect=0;dashed=0;verticalLabelPosition=bottom;verticalAlign=top;align=center;html=1;shape=mxgraph.aws3.mysql_db_instance;fillColor=#2E73B8;gradientColor=none;fontSize=14;" vertex="1" parent="1">
          <mxGeometry x="1190" y="741" width="60" height="64.5" as="geometry" />
        </mxCell>
        <mxCell id="dLVWwbLJQ5aN7-_-cPAS-41" value="" style="outlineConnect=0;dashed=0;verticalLabelPosition=bottom;verticalAlign=top;align=center;html=1;shape=mxgraph.aws3.mysql_db_instance;fillColor=#2E73B8;gradientColor=none;fontSize=14;" vertex="1" parent="1">
          <mxGeometry x="1190" y="1411" width="60" height="64.5" as="geometry" />
        </mxCell>
        <mxCell id="dLVWwbLJQ5aN7-_-cPAS-43" value="" style="outlineConnect=0;dashed=0;verticalLabelPosition=bottom;verticalAlign=top;align=center;html=1;shape=mxgraph.aws3.mysql_db_instance;fillColor=#2E73B8;gradientColor=none;fontSize=14;" vertex="1" parent="1">
          <mxGeometry x="1190" y="1041" width="60" height="64.5" as="geometry" />
        </mxCell>
        <mxCell id="dLVWwbLJQ5aN7-_-cPAS-52" value="&lt;span style=&quot;color: rgb(22, 25, 31); font-family: &amp;quot;Amazon Ember&amp;quot;, &amp;quot;Helvetica Neue&amp;quot;, Roboto, Arial, sans-serif; text-align: left; background-color: rgb(242, 243, 243);&quot;&gt;&lt;font style=&quot;font-size: 12px;&quot;&gt;&lt;b&gt;UE2COMPRODLMBPLANESCOBERTURAS001&lt;/b&gt;&lt;/font&gt;&lt;/span&gt;" style="text;html=1;align=center;verticalAlign=middle;resizable=0;points=[];autosize=1;strokeColor=none;fillColor=none;fontSize=14;" vertex="1" parent="1">
          <mxGeometry x="845" y="1211" width="290" height="30" as="geometry" />
        </mxCell>
        <mxCell id="dLVWwbLJQ5aN7-_-cPAS-56" style="edgeStyle=orthogonalEdgeStyle;rounded=0;orthogonalLoop=1;jettySize=auto;html=1;fontSize=12;" edge="1" parent="1" source="dLVWwbLJQ5aN7-_-cPAS-55" target="dLVWwbLJQ5aN7-_-cPAS-8">
          <mxGeometry relative="1" as="geometry" />
        </mxCell>
        <mxCell id="dLVWwbLJQ5aN7-_-cPAS-55" value="" style="shape=image;html=1;verticalAlign=top;verticalLabelPosition=bottom;labelBackgroundColor=#ffffff;imageAspect=0;aspect=fixed;image=https://cdn1.iconfinder.com/data/icons/general-9/500/laptop-128.png;fontSize=12;" vertex="1" parent="1">
          <mxGeometry x="-390" y="593" width="128" height="128" as="geometry" />
        </mxCell>
        <mxCell id="dLVWwbLJQ5aN7-_-cPAS-58" style="edgeStyle=orthogonalEdgeStyle;rounded=0;orthogonalLoop=1;jettySize=auto;html=1;fontSize=12;" edge="1" parent="1" source="dLVWwbLJQ5aN7-_-cPAS-57" target="dLVWwbLJQ5aN7-_-cPAS-11">
          <mxGeometry relative="1" as="geometry" />
        </mxCell>
        <mxCell id="dLVWwbLJQ5aN7-_-cPAS-57" value="" style="shape=image;html=1;verticalAlign=top;verticalLabelPosition=bottom;labelBackgroundColor=#ffffff;imageAspect=0;aspect=fixed;image=https://cdn1.iconfinder.com/data/icons/general-9/500/laptop-128.png;fontSize=12;" vertex="1" parent="1">
          <mxGeometry x="-390" y="1633" width="128" height="128" as="geometry" />
        </mxCell>
        <mxCell id="dLVWwbLJQ5aN7-_-cPAS-59" value="&lt;span style=&quot;color: rgb(22, 25, 31); font-family: &amp;quot;Amazon Ember&amp;quot;, &amp;quot;Helvetica Neue&amp;quot;, Roboto, Arial, sans-serif; text-align: left; background-color: rgb(242, 243, 243);&quot;&gt;&lt;font style=&quot;font-size: 14px;&quot;&gt;&lt;b&gt;UE1COMPRODLMBAPP072&lt;/b&gt;&lt;/font&gt;&lt;/span&gt;" style="text;html=1;align=center;verticalAlign=middle;resizable=0;points=[];autosize=1;strokeColor=none;fillColor=none;fontSize=12;" vertex="1" parent="1">
          <mxGeometry x="175" y="593" width="210" height="30" as="geometry" />
        </mxCell>
        <mxCell id="dLVWwbLJQ5aN7-_-cPAS-60" value="&lt;span style=&quot;color: rgb(22, 25, 31); font-family: &amp;quot;Amazon Ember&amp;quot;, &amp;quot;Helvetica Neue&amp;quot;, Roboto, Arial, sans-serif; text-align: left; background-color: rgb(255, 255, 255);&quot;&gt;&lt;b&gt;UE1COMPRODLMBABP005&lt;/b&gt;&lt;/span&gt;" style="text;html=1;align=center;verticalAlign=middle;resizable=0;points=[];autosize=1;strokeColor=none;fillColor=none;fontSize=14;" vertex="1" parent="1">
          <mxGeometry x="925" y="585" width="210" height="30" as="geometry" />
        </mxCell>
        <mxCell id="dLVWwbLJQ5aN7-_-cPAS-61" value="&lt;b&gt;/app-nativa/app/v1/polizas/coberturas&lt;/b&gt;" style="text;html=1;align=center;verticalAlign=middle;resizable=0;points=[];autosize=1;strokeColor=none;fillColor=none;fontSize=14;" vertex="1" parent="1">
          <mxGeometry x="-86.75" y="570" width="270" height="30" as="geometry" />
        </mxCell>
        <mxCell id="dLVWwbLJQ5aN7-_-cPAS-62" value="&lt;b&gt;/app-nativa/app/persona/seguro/coverage&lt;/b&gt;" style="text;html=1;align=center;verticalAlign=middle;resizable=0;points=[];autosize=1;strokeColor=none;fillColor=none;fontSize=14;" vertex="1" parent="1">
          <mxGeometry x="-111.75" y="1620.5" width="300" height="30" as="geometry" />
        </mxCell>
        <mxCell id="dLVWwbLJQ5aN7-_-cPAS-64" style="edgeStyle=orthogonalEdgeStyle;rounded=0;orthogonalLoop=1;jettySize=auto;html=1;fontSize=14;" edge="1" parent="1" source="dLVWwbLJQ5aN7-_-cPAS-63" target="dLVWwbLJQ5aN7-_-cPAS-3">
          <mxGeometry relative="1" as="geometry" />
        </mxCell>
        <mxCell id="dLVWwbLJQ5aN7-_-cPAS-63" value="" style="sketch=0;aspect=fixed;html=1;points=[];align=center;image;fontSize=12;image=img/lib/mscae/Cache_Redis_Product.svg;" vertex="1" parent="1">
          <mxGeometry x="1019.5" y="440" width="50" height="42" as="geometry" />
        </mxCell>
        <mxCell id="dLVWwbLJQ5aN7-_-cPAS-74" style="edgeStyle=orthogonalEdgeStyle;rounded=0;orthogonalLoop=1;jettySize=auto;html=1;entryX=0.445;entryY=1.3;entryDx=0;entryDy=0;entryPerimeter=0;fontSize=14;" edge="1" parent="1" source="dLVWwbLJQ5aN7-_-cPAS-67" target="dLVWwbLJQ5aN7-_-cPAS-27">
          <mxGeometry relative="1" as="geometry" />
        </mxCell>
        <mxCell id="dLVWwbLJQ5aN7-_-cPAS-67" value="" style="sketch=0;aspect=fixed;html=1;points=[];align=center;image;fontSize=12;image=img/lib/mscae/Cache_Redis_Product.svg;" vertex="1" parent="1">
          <mxGeometry x="255" y="1440" width="50" height="42" as="geometry" />
        </mxCell>
        <mxCell id="dLVWwbLJQ5aN7-_-cPAS-70" value="&lt;b&gt;ElastiCache - REDIS&lt;/b&gt;" style="text;html=1;align=center;verticalAlign=middle;resizable=0;points=[];autosize=1;strokeColor=none;fillColor=none;fontSize=14;" vertex="1" parent="1">
          <mxGeometry x="194.5" y="1410" width="160" height="30" as="geometry" />
        </mxCell>
        <mxCell id="dLVWwbLJQ5aN7-_-cPAS-71" value="&lt;b&gt;ElastiCache - REDIS&lt;/b&gt;" style="text;html=1;align=center;verticalAlign=middle;resizable=0;points=[];autosize=1;strokeColor=none;fillColor=none;fontSize=14;" vertex="1" parent="1">
          <mxGeometry x="964.5" y="410" width="160" height="30" as="geometry" />
        </mxCell>
        <mxCell id="dLVWwbLJQ5aN7-_-cPAS-69" value="&lt;h4 style=&quot;box-sizing: border-box; margin: 10px 0px; text-rendering: optimizelegibility; color: rgb(255, 255, 255); font-family: AmazonEmberBold, &amp;quot;Helvetica Neue Bold&amp;quot;, &amp;quot;Helvetica Neue&amp;quot;, Helvetica, Arial, sans-serif; font-size: 4.1rem; line-height: 1.2; overflow-wrap: break-word; text-align: start; background-color: rgb(255, 255, 255);&quot; class=&quot;lb-txt-bold lb-txt-none lb-txt-white lb-txt-41 lb-none-v-margin lb-h4 lb-title&quot; id=&quot;Amazon_ElastiCache&quot;&gt;&lt;br&gt;&lt;/h4&gt;" style="text;html=1;align=center;verticalAlign=middle;resizable=0;points=[];autosize=1;strokeColor=none;fillColor=none;fontSize=14;" vertex="1" parent="1">
          <mxGeometry x="289" y="1450" width="20" height="110" as="geometry" />
        </mxCell>
        <mxCell id="dLVWwbLJQ5aN7-_-cPAS-75" value="&lt;b&gt;AE&lt;/b&gt;" style="text;html=1;align=center;verticalAlign=middle;resizable=0;points=[];autosize=1;strokeColor=none;fillColor=none;fontSize=14;" vertex="1" parent="1">
          <mxGeometry x="1200" y="470" width="40" height="30" as="geometry" />
        </mxCell>
        <mxCell id="dLVWwbLJQ5aN7-_-cPAS-76" value="&lt;b&gt;SAP&lt;/b&gt;" style="text;html=1;align=center;verticalAlign=middle;resizable=0;points=[];autosize=1;strokeColor=none;fillColor=none;fontSize=14;" vertex="1" parent="1">
          <mxGeometry x="1195" y="591" width="50" height="30" as="geometry" />
        </mxCell>
        <mxCell id="dLVWwbLJQ5aN7-_-cPAS-77" value="&lt;b&gt;PC&lt;/b&gt;" style="text;html=1;align=center;verticalAlign=middle;resizable=0;points=[];autosize=1;strokeColor=none;fillColor=none;fontSize=14;" vertex="1" parent="1">
          <mxGeometry x="1195" y="711" width="40" height="30" as="geometry" />
        </mxCell>
        <mxCell id="dLVWwbLJQ5aN7-_-cPAS-78" value="&lt;b&gt;RSA&lt;/b&gt;" style="text;html=1;align=center;verticalAlign=middle;resizable=0;points=[];autosize=1;strokeColor=none;fillColor=none;fontSize=14;" vertex="1" parent="1">
          <mxGeometry x="1195" y="1000" width="50" height="30" as="geometry" />
        </mxCell>
        <mxCell id="dLVWwbLJQ5aN7-_-cPAS-79" value="" style="verticalLabelPosition=bottom;html=1;verticalAlign=top;strokeWidth=1;align=center;outlineConnect=0;dashed=0;outlineConnect=0;shape=mxgraph.aws3d.oracleDataCenter;fillColor=#ffffff;strokeColor=#5E5E5E;aspect=fixed;fontSize=14;" vertex="1" parent="1">
          <mxGeometry x="1190" y="1170" width="71.9" height="83" as="geometry" />
        </mxCell>
        <mxCell id="dLVWwbLJQ5aN7-_-cPAS-81" value="&lt;b&gt;ECD&lt;/b&gt;" style="text;html=1;align=center;verticalAlign=middle;resizable=0;points=[];autosize=1;strokeColor=none;fillColor=none;fontSize=14;" vertex="1" parent="1">
          <mxGeometry x="1195" y="1135" width="50" height="30" as="geometry" />
        </mxCell>
        <mxCell id="dLVWwbLJQ5aN7-_-cPAS-82" value="" style="verticalLabelPosition=bottom;html=1;verticalAlign=top;strokeWidth=1;align=center;outlineConnect=0;dashed=0;outlineConnect=0;shape=mxgraph.aws3d.oracleDataCenter;fillColor=#ffffff;strokeColor=#5E5E5E;aspect=fixed;fontSize=14;" vertex="1" parent="1">
          <mxGeometry x="1195" y="500" width="71.9" height="83" as="geometry" />
        </mxCell>
        <mxCell id="dLVWwbLJQ5aN7-_-cPAS-84" value="&lt;div style=&quot;color: rgb(212, 212, 212); background-color: rgb(30, 30, 30); font-family: &amp;quot;Victor Mono&amp;quot;, monospace, Consolas, &amp;quot;Courier New&amp;quot;, monospace; line-height: 19px;&quot;&gt;&lt;span style=&quot;color: #9cdcfe;&quot;&gt;process&lt;/span&gt;.&lt;span style=&quot;color: #9cdcfe;&quot;&gt;env&lt;/span&gt;.&lt;span style=&quot;color: #4fc1ff;&quot;&gt;LMB_CONSULTAR_DOCUMENTO_ECM&lt;/span&gt;&lt;/div&gt;" style="whiteSpace=wrap;html=1;fontSize=14;" vertex="1" parent="1">
          <mxGeometry x="1410" y="1130" width="120" height="60" as="geometry" />
        </mxCell>
        <mxCell id="dLVWwbLJQ5aN7-_-cPAS-85" value="&lt;b&gt;CLOUDFRONT-- &amp;gt;&amp;nbsp;&lt;span style=&quot;font-family: &amp;quot;Victor Mono&amp;quot;, monospace, Consolas, &amp;quot;Courier New&amp;quot;, monospace; color: rgb(156, 220, 254);&quot;&gt;process&lt;/span&gt;&lt;span style=&quot;background-color: rgb(30, 30, 30); color: rgb(212, 212, 212); font-family: &amp;quot;Victor Mono&amp;quot;, monospace, Consolas, &amp;quot;Courier New&amp;quot;, monospace;&quot;&gt;.&lt;/span&gt;&lt;span style=&quot;font-family: &amp;quot;Victor Mono&amp;quot;, monospace, Consolas, &amp;quot;Courier New&amp;quot;, monospace; color: rgb(156, 220, 254);&quot;&gt;env&lt;/span&gt;&lt;span style=&quot;background-color: rgb(30, 30, 30); color: rgb(212, 212, 212); font-family: &amp;quot;Victor Mono&amp;quot;, monospace, Consolas, &amp;quot;Courier New&amp;quot;, monospace;&quot;&gt;.&lt;/span&gt;&lt;span style=&quot;font-family: &amp;quot;Victor Mono&amp;quot;, monospace, Consolas, &amp;quot;Courier New&amp;quot;, monospace; color: rgb(79, 193, 255);&quot;&gt;CLOUDFRONT_POLIZAS_VEH&lt;/span&gt;&lt;/b&gt;" style="text;html=1;align=center;verticalAlign=middle;resizable=0;points=[];autosize=1;strokeColor=none;fillColor=none;fontSize=14;" vertex="1" parent="1">
          <mxGeometry x="1275" y="1100" width="410" height="30" as="geometry" />
        </mxCell>
        <mxCell id="dLVWwbLJQ5aN7-_-cPAS-86" value="" style="verticalLabelPosition=bottom;html=1;verticalAlign=top;strokeWidth=1;align=center;outlineConnect=0;dashed=0;outlineConnect=0;shape=mxgraph.aws3d.oracleDataCenter;fillColor=#ffffff;strokeColor=#5E5E5E;aspect=fixed;fontSize=14;" vertex="1" parent="1">
          <mxGeometry x="1190" y="1300" width="71.9" height="83" as="geometry" />
        </mxCell>
        <mxCell id="dLVWwbLJQ5aN7-_-cPAS-87" value="&lt;b&gt;AX&lt;/b&gt;" style="text;html=1;align=center;verticalAlign=middle;resizable=0;points=[];autosize=1;strokeColor=none;fillColor=none;fontSize=14;" vertex="1" parent="1">
          <mxGeometry x="1210" y="1270" width="40" height="30" as="geometry" />
        </mxCell>
      </root>
    </mxGraphModel>
  </diagram>
</mxfile>
